<svg width="18" height="18" viewBox="0 0 18 18" fill="none" xmlns="http://www.w3.org/2000/svg">
<path d="M0 2.42005C0 1.84284 0.202708 1.36665 0.608108 0.991481C1.01351 0.616295 1.54055 0.428711 2.18919 0.428711C2.82626 0.428711 3.34169 0.613403 3.73552 0.982823C4.14092 1.36378 4.34363 1.86016 4.34363 2.472C4.34363 3.02611 4.14672 3.48786 3.7529 3.85728C3.3475 4.23823 2.81467 4.42871 2.15444 4.42871H2.13707C1.49999 4.42871 0.984562 4.23823 0.590734 3.85728C0.196905 3.47633 0 2.99725 0 2.42005ZM0.225869 17.5716V6.00447H4.08301V17.5716H0.225869ZM6.22008 17.5716H10.0772V11.1127C10.0772 10.7086 10.1236 10.3969 10.2162 10.1776C10.3784 9.78512 10.6245 9.45323 10.9546 9.18195C11.2847 8.91066 11.6988 8.77503 12.1969 8.77503C13.4942 8.77503 14.1429 9.6466 14.1429 11.3897V17.5716H18V10.9395C18 9.23101 17.5946 7.9352 16.7838 7.05208C15.973 6.16897 14.9015 5.72741 13.5695 5.72741C12.0753 5.72741 10.9112 6.3681 10.0772 7.64949V7.68412H10.0598L10.0772 7.64949V6.00447H6.22008C6.24324 6.37387 6.25483 7.52249 6.25483 9.45035C6.25483 11.3782 6.24324 14.0853 6.22008 17.5716Z" fill="#464647"/>
</svg>
