<svg width="20" height="14" viewBox="0 0 20 14" fill="none" xmlns="http://www.w3.org/2000/svg">
<path d="M10.4383 13.9802L6.37607 13.9043C5.06083 13.8778 3.7423 13.9306 2.45285 13.6565C0.491281 13.247 0.352317 11.2391 0.206906 9.55486C0.00654354 7.18702 0.0841097 4.77621 0.462219 2.42813C0.675674 1.11061 1.51571 0.324442 2.81479 0.238892C7.20014 -0.0715831 11.6146 -0.0347886 15.9903 0.110059C16.4524 0.123338 16.9177 0.195914 17.3734 0.278524C19.6227 0.681442 19.6775 2.95684 19.8233 4.8723C19.9688 6.80752 19.9074 8.75268 19.6294 10.6747C19.4065 12.2661 18.9798 13.6007 17.1795 13.7295C14.9237 13.898 12.7197 14.0336 10.4576 13.9904C10.4577 13.9802 10.4447 13.9802 10.4383 13.9802ZM8.05009 9.95119C9.74999 8.95378 11.4175 7.97299 13.1076 6.98227C11.4046 5.98486 9.74027 5.00407 8.05009 4.01335V9.95119Z" fill="#464647"/>
</svg>
