<svg width="309" height="64" viewBox="0 0 309 64" fill="none" xmlns="http://www.w3.org/2000/svg">
<g clip-path="url(#clip0_570_1030)">
<path d="M72.2838 0H50.9121V64H72.2838V0Z" fill="#FF8206"/>
<path d="M128.924 0H103.336V19.2124H128.924V0Z" fill="#FF8206"/>
<path d="M128.924 39.4854H103.336V64.0044H128.924V39.4854Z" fill="#FF8206"/>
<path d="M128.928 24.4467V34.1998H98.4979V64H77.1219V0H98.4979V24.4467H128.928Z" fill="#FF8206"/>
<path d="M45.1369 55.508C43.9997 54.7286 42.9137 53.9364 41.8702 53.1357C18.1646 34.9583 17.8537 12.1045 18.7311 3.4502C22.7175 6.25688 29.928 12.0832 35.8309 20.9334C41.5934 29.5749 46.1037 41.0955 45.1411 55.508H45.1369Z" fill="#FF8206"/>
<path d="M45.1368 55.5082C43.9997 54.7288 42.9136 53.9366 41.8702 53.1359C35.0984 40.4057 35.2773 27.7778 35.8267 20.9336C41.5891 29.5751 46.0994 41.0957 45.1368 55.5082Z" fill="#E37406"/>
<path d="M41.538 60.4696C40.452 60.525 39.3872 60.5505 38.3523 60.5505C14.7574 60.5164 3.59886 46.3297 0 40.4779C3.85014 40.3288 11.1671 40.5247 19.1144 43.2462C26.8743 45.9038 35.2304 50.9678 41.538 60.4739V60.4696Z" fill="#E37406"/>
<path d="M32.0362 60.1841C12.7302 57.9268 3.26239 45.7801 0 40.4777C2.61503 40.3754 6.83144 40.4308 11.7634 41.3337C13.9269 44.8517 20.1579 53.5741 32.0362 60.1841Z" fill="#FF8206"/>
<path d="M308.305 22.3001V8.60742H292.478C286.784 8.60742 282.167 13.2242 282.167 18.9185V48.2332C282.167 53.9274 286.784 58.5442 292.478 58.5442H308.305V44.8473H295.864V39.285H302.627V30.6307H295.864V22.3001H308.305Z" fill="#464647"/>
<path d="M277.15 8.60742H263.453V58.5442H277.15V8.60742Z" fill="#464647"/>
<path d="M209.688 8.60742H198.018V58.5442H211.715V41.7637H220.62V30.6307H211.715V22.3001H224.015V8.60742H211.715H209.688Z" fill="#464647"/>
<path d="M178.405 8.60742H166.109V58.5442H179.806V41.7637H189.338V30.6307H179.806V22.3001H192.728V8.60742H179.806H178.405Z" fill="#464647"/>
<path d="M160.82 8.60742H147.123V58.5442H160.82V8.60742Z" fill="#464647"/>
<path d="M249.833 29.8003C246.379 27.7986 244.019 26.3974 242.657 25.5754C241.213 24.7065 240.225 23.2329 240.033 21.5591C239.952 20.8607 240.008 20.1238 240.323 19.4339C241.404 17.0574 247.503 16.7039 246.579 24.5064H258.066C258.066 24.5064 260.498 8.9099 245.548 7.27445C230.974 5.67732 227.256 18.169 228.355 24.7065C229.599 31.1291 236.404 36.7595 241.46 38.9444C246.515 41.1292 246.515 44.1233 246.515 44.1233L246.613 45.401C246.622 45.499 246.626 45.5969 246.626 45.6906C246.626 47.7775 244.931 49.5024 242.81 49.5024C240.689 49.5024 238.994 47.7946 238.994 45.6864V41.4913H227.426C226.255 52.6967 231.796 60.0179 243.402 60.0179C255.008 60.0179 258.087 52.9054 258.649 47.3176C259.463 39.2042 256.464 33.6462 249.833 29.8046V29.8003Z" fill="#464647"/>
</g>
<defs>
<clipPath id="clip0_570_1030">
<rect width="308.305" height="64" fill="white"/>
</clipPath>
</defs>
</svg>
