<svg width="155" height="32" viewBox="0 0 155 32" fill="none" xmlns="http://www.w3.org/2000/svg">
<g clip-path="url(#clip0_451_428)">
<path d="M36.1419 0H25.4561V32H36.1419V0Z" fill="#FF8206"/>
<path d="M64.462 0H51.668V9.60618H64.462V0Z" fill="#FF8206"/>
<path d="M64.462 19.7426H51.668V32.0021H64.462V19.7426Z" fill="#FF8206"/>
<path d="M64.4642 12.2233V17.0999H49.2489V32H38.5609V0H49.2489V12.2233H64.4642Z" fill="#FF8206"/>
<path d="M22.5685 27.7538C21.9999 27.3641 21.4569 26.968 20.9352 26.5677C9.08237 17.479 8.92692 6.05206 9.36559 1.72491C11.3588 3.12826 14.964 6.04141 17.9155 10.4665C20.7967 14.7873 23.0519 20.5476 22.5706 27.7538H22.5685Z" fill="#FF8206"/>
<path d="M22.5686 27.7538C22 27.3641 21.457 26.968 20.9353 26.5676C17.5494 20.2026 17.6388 13.8886 17.9135 10.4665C20.7947 14.7872 23.0499 20.5475 22.5686 27.7538Z" fill="#E37406"/>
<path d="M20.769 30.2346C20.226 30.2623 19.6936 30.2751 19.1761 30.2751C7.37872 30.258 1.79943 23.1647 0 20.2387C1.92507 20.1642 5.58355 20.2622 9.5572 21.6229C13.4371 22.9517 17.6152 25.4837 20.769 30.2367V30.2346Z" fill="#E37406"/>
<path d="M16.0181 30.092C6.36508 28.9633 1.6312 22.89 0 20.2388C1.30751 20.1877 3.41572 20.2153 5.88168 20.6668C6.96347 22.4258 10.0789 26.787 16.0181 30.092Z" fill="#FF8206"/>
<path d="M154.153 11.1501V4.30371H146.239C143.392 4.30371 141.084 6.61209 141.084 9.45923V24.1166C141.084 26.9637 143.392 29.2721 146.239 29.2721H154.153V22.4236H147.932V19.6425H151.314V15.3154H147.932V11.1501H154.153Z" fill="#464647"/>
<path d="M138.575 4.30371H131.727V29.2721H138.575V4.30371Z" fill="#464647"/>
<path d="M104.844 4.30371H99.0092V29.2721H105.858V20.8819H110.31V15.3154H105.858V11.1501H112.008V4.30371H105.858H104.844Z" fill="#464647"/>
<path d="M89.2027 4.30371H83.0548V29.2721H89.9033V20.8819H94.6691V15.3154H89.9033V11.1501H96.3642V4.30371H89.9033H89.2027Z" fill="#464647"/>
<path d="M80.41 4.30371H73.5615V29.2721H80.41V4.30371Z" fill="#464647"/>
<path d="M124.917 14.9001C123.189 13.8993 122.01 13.1987 121.328 12.7877C120.606 12.3533 120.112 11.6165 120.017 10.7796C119.976 10.4303 120.004 10.0619 120.161 9.71695C120.702 8.52868 123.752 8.35194 123.29 12.2532H129.033C129.033 12.2532 130.249 4.45495 122.774 3.63722C115.487 2.83866 113.628 9.08448 114.177 12.3533C114.799 15.5646 118.202 18.3798 120.73 19.4722C123.258 20.5646 123.258 22.0617 123.258 22.0617L123.307 22.7005C123.311 22.7495 123.313 22.7985 123.313 22.8453C123.313 23.8888 122.465 24.7512 121.405 24.7512C120.344 24.7512 119.497 23.8973 119.497 22.8432V20.7456H113.713C113.128 26.3483 115.898 30.009 121.701 30.009C127.504 30.009 129.043 26.4527 129.325 23.6588C129.731 19.6021 128.232 16.8231 124.917 14.9023V14.9001Z" fill="#464647"/>
</g>
<defs>
<clipPath id="clip0_451_428">
<rect width="154.152" height="32" fill="white"/>
</clipPath>
</defs>
</svg>
