<svg width="33" height="32" viewBox="0 0 33 32" fill="none" xmlns="http://www.w3.org/2000/svg">
<g clip-path="url(#clip0_570_815)">
<path d="M0.520467 27.4323C0.720506 27.2104 0.971806 27.166 1.26186 27.1723C1.99075 27.1879 2.71965 27.176 3.44979 27.1779C3.82049 27.1779 4.0249 27.3479 4.0249 27.643C4.0249 27.938 3.81674 28.1131 3.45104 28.115C2.86843 28.1181 2.28456 28.1225 1.7007 28.1118C1.52066 28.1081 1.45065 28.1381 1.45065 28.3438C1.4644 29.177 1.46253 30.0103 1.45065 30.8442C1.45065 31.0318 1.51316 31.0618 1.68007 31.0612C3.80548 31.0562 5.9309 31.0562 8.05631 31.0612C8.22885 31.0612 8.28448 31.0205 8.28261 30.8405C8.27261 30.0072 8.26948 29.1739 8.28261 28.34C8.28636 28.1262 8.20072 28.1118 8.02881 28.1131C7.2374 28.1206 6.446 28.1162 5.65334 28.1162C5.43705 28.1162 5.26577 28.0349 5.1745 27.8318C5.13796 27.7562 5.12372 27.6718 5.13346 27.5884C5.14321 27.505 5.17653 27.4262 5.22951 27.3611C5.34829 27.2042 5.51519 27.1735 5.7021 27.1735C6.45225 27.1779 7.2024 27.1585 7.95254 27.1841C8.24385 27.1941 8.28761 27.0973 8.28323 26.8372C8.26823 25.8689 8.27636 24.8993 8.27761 23.9316C8.27761 23.4459 8.42576 23.2953 8.90773 23.2953C11.1675 23.2953 13.4274 23.2896 15.6872 23.3003C15.9616 23.3003 16.0623 23.249 16.0535 22.9496C16.0322 21.9819 16.0435 21.0117 16.046 20.044C16.046 19.5527 16.1879 19.4126 16.6786 19.4114C17.5538 19.4114 18.429 19.4051 19.3041 19.4114C19.7417 19.4151 19.978 19.7821 19.773 20.119C19.6542 20.3134 19.4654 20.3484 19.2591 20.3478C18.5821 20.3478 17.9051 20.3541 17.2281 20.3434C17.0406 20.3403 16.9818 20.3897 16.9824 20.5854C16.9883 24.0027 16.9883 27.4186 16.9824 30.833C16.9824 31.0124 17.0318 31.0568 17.2069 31.0568C19.3323 31.0505 21.4577 31.0505 23.5831 31.0568C23.7775 31.0568 23.8238 31.0043 23.8231 30.813C23.8177 27.4073 23.8177 24.0017 23.8231 20.596C23.8231 20.3766 23.7475 20.3403 23.5543 20.3459C22.8667 20.3553 22.1791 20.3497 21.4914 20.3491C21.2514 20.3491 21.0614 20.2615 20.9776 20.0227C20.9082 19.824 20.972 19.6546 21.1251 19.517C21.2433 19.4101 21.3914 19.4108 21.5377 19.4108C22.1834 19.4108 22.8292 19.3976 23.4756 19.4164C23.74 19.4245 23.8319 19.3707 23.8256 19.0807C23.8044 18.1017 23.8163 17.1228 23.8181 16.1426C23.8181 15.6713 23.96 15.5306 24.432 15.5287C25.1084 15.5287 25.786 15.5206 26.4624 15.5331C26.6662 15.5369 26.7237 15.48 26.7231 15.2743C26.7156 13.171 26.7156 11.0664 26.7231 8.96059C26.7231 8.77805 26.7075 8.68366 26.4774 8.68616C25.3322 8.69991 24.1863 8.69804 23.0392 8.68616C22.8298 8.68616 22.7717 8.74867 22.7798 8.95059C22.7948 9.33504 22.7892 9.72136 22.7798 10.1064C22.7736 10.4596 22.6142 10.6297 22.266 10.6303C19.7355 10.634 17.2048 10.634 14.6739 10.6303C14.15 10.6303 13.965 10.249 14.26 9.79888C14.7676 9.02498 15.2819 8.25566 15.8028 7.49093C15.9166 7.32527 15.9341 7.21025 15.811 7.03209C15.2965 6.28819 14.8039 5.53179 14.2988 4.78165C14.1588 4.57411 14.0444 4.35594 14.1806 4.11777C14.3088 3.89335 14.547 3.8746 14.7851 3.87522C16.4104 3.87522 18.0358 3.87522 19.6611 3.88085C19.8699 3.88085 19.9543 3.84334 19.9411 3.61392C19.9205 3.2501 19.933 2.88503 19.9361 2.52058C19.9405 2.09612 20.0987 1.93734 20.5225 1.93734C22.4804 1.93734 24.4383 1.92922 26.3986 1.94484C26.6875 1.94484 26.7462 1.86045 26.7268 1.59978C26.7043 1.28721 26.735 0.974654 26.7181 0.662093C26.7018 0.379538 26.7918 0.161995 27.0188 -0.00366211H29.3317C29.5543 0.183875 29.6093 0.41767 29.608 0.702726C29.5986 2.79626 29.603 4.89104 29.603 6.9827C29.6055 7.07637 29.6024 7.1701 29.5936 7.26338C29.5618 7.51781 29.4011 7.65971 29.1561 7.67159C28.911 7.68346 28.7397 7.54656 28.6866 7.30276C28.6677 7.19003 28.6604 7.07567 28.6647 6.96145C28.6647 5.18068 28.6647 3.39992 28.6647 1.61915C28.6647 0.931521 28.6647 0.945898 27.9727 0.92652C27.7052 0.919018 27.6539 1.00028 27.6545 1.25471C27.6629 5.77434 27.6649 10.2942 27.6608 14.8142C27.6608 15.5331 27.6608 15.52 28.3672 15.5356C28.6253 15.5412 28.671 15.4531 28.6697 15.2181C28.661 13.3021 28.6641 11.3861 28.6666 9.46694C28.6612 9.34259 28.6741 9.21812 28.7047 9.09749C28.7747 8.86745 28.9516 8.76993 29.1867 8.79181C29.2869 8.79428 29.3829 8.83312 29.4566 8.9011C29.5303 8.96907 29.5768 9.06154 29.5874 9.16125C29.6016 9.27485 29.6064 9.38943 29.6018 9.50382C29.6018 11.4098 29.6074 13.3171 29.5968 15.2212C29.5968 15.4712 29.6593 15.5387 29.9093 15.5337C30.5545 15.5162 31.2008 15.5387 31.8472 15.5231C32.1254 15.5162 32.3473 15.5856 32.5205 15.8051C32.5205 21.1169 32.5226 26.4286 32.5267 31.74C32.5267 31.9538 32.4848 31.9957 32.2704 31.9957C21.7684 31.992 11.2684 31.9934 0.770516 32.0001C0.556724 32.0001 0.512341 31.9588 0.514216 31.7444C0.526719 30.3073 0.520467 28.8701 0.520467 27.4323ZM24.7558 23.7441C24.7558 26.0871 24.7596 28.4325 24.7496 30.7736C24.7496 31.0086 24.8058 31.0624 25.0384 31.0612C27.1221 31.0512 29.2048 31.0512 31.2865 31.0612C31.504 31.0612 31.5834 31.0324 31.5828 30.783C31.5736 26.1071 31.5736 21.4312 31.5828 16.7552C31.5828 16.5258 31.534 16.4633 31.2965 16.4646C29.2242 16.4752 27.1519 16.4783 25.0796 16.4646C24.7865 16.4646 24.7502 16.5558 24.7514 16.8121C24.7596 19.1213 24.7558 21.4337 24.7558 23.7454V23.7441ZM16.0473 27.6486C16.0473 26.5978 16.0429 25.5476 16.051 24.4967C16.051 24.3092 16.0222 24.2286 15.801 24.2292C13.6893 24.2388 11.5774 24.2388 9.46534 24.2292C9.2528 24.2292 9.21092 24.2967 9.21154 24.4936C9.21863 26.5949 9.21863 28.6963 9.21154 30.798C9.21154 30.9936 9.2503 31.0618 9.46159 31.0612C11.5733 31.0524 13.6851 31.0524 15.7972 31.0612C16.0091 31.0612 16.0473 30.9955 16.0473 30.8005C16.0422 29.7503 16.0473 28.6994 16.0473 27.6486ZM23.7988 7.75973C24.6933 7.75973 25.5879 7.75348 26.4818 7.7641C26.6737 7.7641 26.725 7.71847 26.7237 7.52406C26.715 6.05752 26.715 4.59119 26.7237 3.12507C26.7237 2.95192 26.7062 2.87065 26.4949 2.8719C24.6958 2.88148 22.8967 2.88148 21.0976 2.8719C20.9226 2.8719 20.8707 2.91753 20.8719 3.09569C20.879 4.57223 20.879 6.04898 20.8719 7.52593C20.8719 7.72785 20.9345 7.76348 21.1182 7.7616C22.009 7.75473 22.903 7.75973 23.7975 7.75973H23.7988ZM15.4909 9.6526C15.5372 9.67885 15.5534 9.69573 15.5697 9.69573C17.6007 9.69886 19.6329 9.72261 21.6608 9.68198C22.0666 9.67385 21.7615 9.23252 21.8365 9.00247C21.8753 8.88182 21.9184 8.67991 21.6421 8.69304C21.2783 8.71054 20.9132 8.69929 20.5488 8.69741C20.0812 8.69741 19.938 8.55176 19.9368 8.08167C19.9368 7.0921 19.9261 6.10253 19.943 5.11359C19.9474 4.85729 19.8636 4.80915 19.6304 4.81165C18.3289 4.82228 17.0268 4.8154 15.7253 4.81915C15.6522 4.81915 15.5609 4.7729 15.494 4.87417C15.8447 5.40052 16.1935 5.92937 16.5467 6.4551C17.1406 7.3409 17.1318 7.19024 16.5411 8.08042L15.4909 9.6526Z" fill="#FF8206"/>
</g>
<defs>
<clipPath id="clip0_570_815">
<rect width="32.0056" height="32" fill="white" transform="translate(0.51416)"/>
</clipPath>
</defs>
</svg>
