<svg width="33" height="32" viewBox="0 0 33 32" fill="none" xmlns="http://www.w3.org/2000/svg">
<path d="M14.0744 31.9931C13.7387 31.845 13.3717 31.8719 13.0204 31.815C10.4714 31.4142 8.07083 30.3561 6.05529 28.745C5.80524 28.545 5.75711 28.283 5.91901 28.0624C6.0953 27.8236 6.36848 27.8011 6.65728 28.0286C8.01982 29.1097 9.57209 29.9272 11.2344 30.4391C18.7928 32.7683 26.8231 28.2861 28.7141 20.5915C29.8699 15.8875 28.7897 11.6523 25.6347 7.96406C25.4853 7.78902 25.3997 7.75526 25.2203 7.94343C24.6602 8.53146 24.0861 9.10595 23.4981 9.66689C23.3212 9.8363 23.3318 9.93007 23.4843 10.1076C25.1878 12.0892 26.0873 14.3841 26.1442 17.0021C26.1473 17.1365 26.1642 17.274 26.078 17.394C25.9529 17.5722 25.7823 17.6609 25.566 17.5984C25.3097 17.5234 25.2097 17.3265 25.209 17.074C25.2052 16.2613 25.0953 15.4527 24.8821 14.6685C24.4946 13.217 23.7828 11.8724 22.8004 10.7358C22.6723 10.5864 22.6035 10.5564 22.451 10.7146C21.8721 11.3141 21.2814 11.9023 20.685 12.4831C20.5481 12.6162 20.5325 12.6937 20.6594 12.8506C21.7559 14.2053 22.2628 15.7587 22.2059 17.5034C22.1084 20.6178 19.718 23.4183 16.6536 23.9884C12.9029 24.6867 9.41157 22.4025 8.54703 18.6855C7.64873 14.8198 10.3968 10.8671 14.3325 10.3614C16.3117 10.1076 18.0833 10.5902 19.6461 11.8379C19.8124 11.9705 19.8917 11.963 20.0386 11.8123C20.6096 11.2205 21.1916 10.6392 21.7846 10.0682C21.9521 9.90693 21.9278 9.83317 21.7646 9.69314C19.5704 7.85778 17.0512 7.032 14.2081 7.36269C9.87854 7.86279 6.55476 10.9046 5.59958 15.153C4.4356 20.3302 7.86877 25.7175 13.061 26.8609C18.3696 28.0299 23.525 24.8924 24.9033 19.6538C24.9402 19.5132 24.9659 19.37 25.009 19.2306C25.0946 18.9337 25.3216 18.793 25.5979 18.8662C25.8442 18.9287 25.9773 19.1719 25.9154 19.4576C25.581 21.0141 24.9571 22.4469 23.9775 23.7028C21.6646 26.669 18.6115 28.1411 14.8508 28.0386C9.84978 27.9011 5.48956 24.0803 4.63189 19.1556C3.61231 13.3007 7.27553 7.79965 13.0892 6.59066C16.5361 5.87302 19.6479 6.71569 22.3522 8.983C22.5735 9.17054 22.6823 9.18679 22.8886 8.96738C23.4368 8.38289 24.0082 7.81903 24.587 7.26454C24.7558 7.10326 24.7252 7.032 24.5695 6.89447C22.5654 5.126 20.2531 3.98953 17.6101 3.5632C14.0268 2.98058 10.6887 3.65634 7.67061 5.67548C4.34683 7.89717 2.29456 11.0028 1.65568 14.9523C0.95742 19.26 2.10077 23.0851 4.94632 26.3983C4.96633 26.422 4.98821 26.4445 5.00884 26.4689C5.22763 26.7346 5.23138 27.0003 5.02009 27.1884C4.8088 27.3766 4.53999 27.3478 4.31058 27.0934C3.68268 26.3986 3.12312 25.645 2.63962 24.843C1.50974 22.9668 0.808305 20.8643 0.585472 18.6855C0.578596 18.623 0.617354 18.5336 0.517334 18.5011V15.9381C0.6011 15.9125 0.57547 15.84 0.579846 15.7831C0.647048 15.1632 0.747841 14.5473 0.88178 13.9383C2.30643 7.57898 7.83126 2.8368 14.3138 2.45235C18.1789 2.22293 21.639 3.32752 24.6658 5.75487C24.7252 5.80238 24.7671 5.89365 24.879 5.85864C24.8452 5.35855 24.8196 4.86282 24.7758 4.36585C24.7514 4.16406 24.7749 3.95935 24.8446 3.76838C24.9142 3.57741 25.0279 3.40558 25.1765 3.26689C25.8016 2.65489 26.4086 2.02665 27.0344 1.4159C27.5195 0.937683 27.9671 0.418832 28.5097 0H28.9473C29.3305 0.20254 29.4474 0.536355 29.4474 0.94956C29.4517 1.38715 29.4974 1.82473 29.5293 2.33171C29.9218 1.9335 30.2513 1.58781 30.592 1.25462C30.8301 1.02395 31.1589 1.0427 31.3221 1.29088C31.4765 1.52592 31.4252 1.74534 31.2315 1.93725L30.185 2.97933C30.7045 3.01184 31.1477 3.05622 31.5909 3.06122C31.9966 3.0656 32.3117 3.19562 32.5092 3.56132V3.99891C32.3398 4.18644 32.1785 4.38898 31.9991 4.56964C31.1039 5.47107 30.1963 6.35999 29.3111 7.26892C28.9548 7.63462 28.5547 7.78402 28.049 7.72713C27.5789 7.674 27.1038 7.66462 26.5837 7.62774C26.6824 7.75276 26.7518 7.84216 26.82 7.9303C30.04 12.1011 30.9952 16.7608 29.3436 21.7455C27.4632 27.4216 23.4049 30.7573 17.505 31.8281C17.1543 31.8906 16.7905 31.8656 16.4511 31.9931H14.0744ZM15.3033 11.2334C12.1602 11.2334 9.53722 13.6808 9.33468 16.797C9.06213 20.9741 13.0467 24.1372 17.0518 22.9232C21.0132 21.7217 22.571 16.8689 20.058 13.5789C19.8861 13.3539 19.798 13.3514 19.6042 13.5564C19.0753 14.1165 18.5304 14.6612 17.9695 15.1905C17.772 15.378 17.7413 15.4987 17.8851 15.7481C18.9641 17.6191 17.6976 20.0095 15.5528 20.1771C14.9288 20.2287 14.3044 20.0825 13.7682 19.7592C13.232 19.436 12.8112 18.9521 12.5656 18.3762C12.3199 17.8003 12.2618 17.1616 12.3996 16.5509C12.5373 15.9401 12.8639 15.3882 13.333 14.9735C13.8028 14.5559 14.3937 14.2993 15.0197 14.2412C15.6456 14.183 16.2737 14.3264 16.8124 14.6504C17.0212 14.7754 17.12 14.7373 17.2694 14.5835C17.8282 14.009 18.3896 13.4357 18.9722 12.885C19.1829 12.6856 19.1285 12.6006 18.9303 12.4543C17.8513 11.6542 16.6486 11.2341 15.3033 11.2334ZM16.3661 15.4943C15.544 14.9385 14.3919 15.1192 13.7487 15.8831C13.4195 16.2686 13.2458 16.763 13.2614 17.2697C13.277 17.7764 13.4809 18.2591 13.8332 18.6236C14.1855 18.9881 14.661 19.2082 15.1669 19.2411C15.6728 19.2739 16.1727 19.1171 16.5692 18.8012C16.9567 18.4972 17.2187 18.0612 17.3053 17.5764C17.3919 17.0916 17.297 16.5919 17.0387 16.1725C16.9312 16.2019 16.8755 16.2976 16.8036 16.3682C16.4286 16.7433 16.0535 17.1183 15.6784 17.4934C15.5384 17.6334 15.3809 17.7185 15.1746 17.6541C14.8051 17.5391 14.7207 17.1365 15.0158 16.8364C15.4578 16.3844 15.9122 15.9444 16.3673 15.4943H16.3661ZM28.5197 1.25962L25.8185 3.95827C25.7822 3.98799 25.7533 4.02566 25.7339 4.06837C25.7144 4.11108 25.7051 4.15768 25.7066 4.20457C25.7473 4.79031 25.7873 5.37605 25.8317 6.0343C26.7693 5.08662 27.6633 4.18832 28.5572 3.29189C28.5862 3.26298 28.6082 3.22772 28.6213 3.18889C28.6344 3.15006 28.6384 3.10871 28.6328 3.0681C28.5972 2.48799 28.5609 1.9085 28.5197 1.25962ZM31.259 3.99328C30.6463 3.9514 30.11 3.92202 29.5743 3.87576C29.4886 3.8651 29.4016 3.87572 29.3211 3.90669C29.2405 3.93765 29.1688 3.98801 29.1123 4.05329C28.3171 4.8622 27.5107 5.65923 26.7112 6.46376C26.6487 6.52628 26.5543 6.56378 26.5505 6.68068C27.1132 6.71944 27.6758 6.75569 28.2334 6.79883C28.2952 6.80586 28.3578 6.7982 28.4162 6.77648C28.4745 6.75475 28.5269 6.71958 28.5691 6.6738C29.4436 5.80113 30.3207 4.92846 31.259 3.99328Z" fill="#FF8206"/>
</svg>
